<?xml version="1.0" encoding="UTF-8"?>
<!DOCTYPE svg PUBLIC "-//W3C//DTD SVG 1.1//EN" "http://www.w3.org/Graphics/SVG/1.1/DTD/svg11.dtd">
<svg xmlns="http://www.w3.org/2000/svg" version="1.1" width="303px" height="358px" style="shape-rendering:geometricPrecision; text-rendering:geometricPrecision; image-rendering:optimizeQuality; fill-rule:evenodd; clip-rule:evenodd" xmlns:xlink="http://www.w3.org/1999/xlink">
<g><path style="opacity:0.004" fill="#fefffe" d="M 71.5,1.5 C 72.8333,2.16667 72.8333,2.16667 71.5,1.5 Z"/></g>
<g><path style="opacity:0.004" fill="#fefffe" d="M 230.5,2.5 C 231.833,3.16667 231.833,3.16667 230.5,2.5 Z"/></g>
<g><path style="opacity:0.004" fill="#fefffe" d="M 284.5,6.5 C 285.833,7.16667 285.833,7.16667 284.5,6.5 Z"/></g>
<g><path style="opacity:0.004" fill="#fefffe" d="M 149.5,11.5 C 150.833,12.1667 150.833,12.1667 149.5,11.5 Z"/></g>
<g><path style="opacity:1" fill="#8adf6f" d="M 204.5,-0.5 C 206.5,-0.5 208.5,-0.5 210.5,-0.5C 210.543,4.59712 212.043,9.26379 215,13.5C 221.845,37.4152 216.512,57.7485 199,74.5C 198.209,75.745 197.709,77.0783 197.5,78.5C 193.66,79.2524 190.66,81.2524 188.5,84.5C 185.388,85.9829 182.555,85.6496 180,83.5C 179.536,78.9039 178.203,74.5705 176,70.5C 174.959,60.1794 174.625,49.8461 175,39.5C 175.973,37.6079 176.64,35.6079 177,33.5C 180.887,28.1872 184.221,22.5206 187,16.5C 191.766,10.8951 197.266,6.2284 203.5,2.5C 204.386,1.67504 204.719,0.675044 204.5,-0.5 Z"/></g>
<g><path style="opacity:0.004" fill="#fefffe" d="M -0.5,13.5 C 0.833333,14.1667 0.833333,14.1667 -0.5,13.5 Z"/></g>
<g><path style="opacity:0.004" fill="#fefffe" d="M 299.5,23.5 C 300.833,24.1667 300.833,24.1667 299.5,23.5 Z"/></g>
<g><path style="opacity:0.471" fill="#95c37b" d="M 210.5,-0.5 C 210.833,-0.5 211.167,-0.5 211.5,-0.5C 218.503,15.1866 220.669,31.52 218,48.5C 214.499,60.8245 207.666,70.8245 197.5,78.5C 197.709,77.0783 198.209,75.745 199,74.5C 216.512,57.7485 221.845,37.4152 215,13.5C 212.043,9.26379 210.543,4.59712 210.5,-0.5 Z"/></g>
<g><path style="opacity:0.004" fill="#fefffe" d="M 242.5,35.5 C 243.833,36.1667 243.833,36.1667 242.5,35.5 Z"/></g>
<g><path style="opacity:0.004" fill="#fefffe" d="M 132.5,41.5 C 131.833,40.1667 131.833,40.1667 132.5,41.5 Z"/></g>
<g><path style="opacity:1" fill="#2e811b" d="M 79.5,85.5 C 79.5,84.8333 79.5,84.1667 79.5,83.5C 77.579,76.4779 76.2457,69.3112 75.5,62C 76.0301,54.6489 77.3634,47.4823 79.5,40.5C 85.1821,41.3426 89.3488,44.3426 92,49.5C 93.0113,48.6634 94.1779,48.33 95.5,48.5C 97.6143,52.5911 99.281,56.9245 100.5,61.5C 103.238,60.9648 105.072,61.9648 106,64.5C 107.614,69.6081 108.78,74.7748 109.5,80C 108.134,87.16 106.801,94.3266 105.5,101.5C 97.2299,102.858 91.3966,99.8583 88,92.5C 85.5838,89.5766 82.7504,87.2433 79.5,85.5 Z"/></g>
<g><path style="opacity:0.212" fill="#a1c68b" d="M 152.5,57.5 C 147.072,51.7321 141.072,46.7321 134.5,42.5C 132.493,44.5332 130.493,46.5332 128.5,48.5C 129.063,45.7052 130.396,43.3718 132.5,41.5C 133.15,41.1961 133.817,40.8627 134.5,40.5C 141.829,44.8306 147.829,50.4973 152.5,57.5 Z"/></g>
<g><path style="opacity:0.004" fill="#fefffe" d="M 296.5,48.5 C 297.833,49.1667 297.833,49.1667 296.5,48.5 Z"/></g>
<g><path style="opacity:1" fill="#89df6f" d="M 152.5,57.5 C 152.343,58.8734 152.51,60.2068 153,61.5C 157.13,65.4349 159.963,70.1016 161.5,75.5C 162.5,75.5 163.5,75.5 164.5,75.5C 168.232,88.8799 169.398,102.547 168,116.5C 165.302,125.847 162.136,134.847 158.5,143.5C 157.448,143.351 156.448,143.517 155.5,144C 154.95,145.845 153.95,147.345 152.5,148.5C 148.413,146.245 145.58,142.912 144,138.5C 143.667,138.833 143.333,139.167 143,139.5C 141.392,137.9 139.559,136.567 137.5,135.5C 135.143,129.714 131.643,124.714 127,120.5C 125.092,117.794 124.259,114.794 124.5,111.5C 123.5,111.5 122.5,111.5 121.5,111.5C 121.88,109.302 121.213,107.635 119.5,106.5C 117.388,91.5664 118.555,76.8998 123,62.5C 126.058,58.2883 127.892,53.6216 128.5,48.5C 130.493,46.5332 132.493,44.5332 134.5,42.5C 141.072,46.7321 147.072,51.7321 152.5,57.5 Z"/></g>
<g><path style="opacity:1" fill="#95cc7a" d="M 203.5,-0.5 C 203.833,-0.5 204.167,-0.5 204.5,-0.5C 204.719,0.675044 204.386,1.67504 203.5,2.5C 197.266,6.2284 191.766,10.8951 187,16.5C 184.221,22.5206 180.887,28.1872 177,33.5C 176.64,35.6079 175.973,37.6079 175,39.5C 174.625,49.8461 174.959,60.1794 176,70.5C 178.203,74.5705 179.536,78.9039 180,83.5C 182.555,85.6496 185.388,85.9829 188.5,84.5C 190.66,81.2524 193.66,79.2524 197.5,78.5C 193.162,84.3726 187.496,87.8726 180.5,89C 168.82,68.2304 167.987,47.0637 178,25.5C 185.097,15.3864 193.597,6.71974 203.5,-0.5 Z"/></g>
<g><path style="opacity:1" fill="#70bd59" d="M 255.5,138.5 C 255.5,139.167 255.167,139.5 254.5,139.5C 244.191,145.285 233.524,150.452 222.5,155C 217.279,155.272 212.279,156.272 207.5,158C 204.167,158.667 200.833,158.667 197.5,158C 198.51,153.657 201.01,150.49 205,148.5C 206.174,144.662 208.174,141.328 211,138.5C 211.505,136.482 212.005,134.482 212.5,132.5C 213.167,130.833 213.833,129.167 214.5,127.5C 214.833,127.5 215.167,127.5 215.5,127.5C 221.041,120.938 226.708,114.438 232.5,108C 229.394,108.206 226.394,109.039 223.5,110.5C 217.411,111.712 212.078,114.545 207.5,119C 203.864,119.15 201.197,120.816 199.5,124C 197.58,125.122 195.58,125.956 193.5,126.5C 193.608,128.514 192.942,130.18 191.5,131.5C 187.588,132.79 183.921,134.623 180.5,137C 177.834,139.145 175.834,141.645 174.5,144.5C 173.167,144.5 171.833,144.5 170.5,144.5C 171.496,139.183 172.829,133.849 174.5,128.5C 179.879,119.075 184.712,109.408 189,99.5C 192.766,96.6755 196.266,93.5088 199.5,90C 203.526,87.9541 207.526,85.9541 211.5,84C 212.866,82.4002 213.866,80.5668 214.5,78.5C 232.27,68.925 251.27,63.925 271.5,63.5C 278.193,63.5839 284.859,63.9172 291.5,64.5C 291.663,66.8568 291.497,69.1902 291,71.5C 286.571,91.2642 278.071,109.264 265.5,125.5C 264.675,126.386 263.675,126.719 262.5,126.5C 262.876,131.296 260.709,134.296 256,135.5C 255.517,136.448 255.351,137.448 255.5,138.5 Z"/></g>
<g><path style="opacity:0.161" fill="#70955c" d="M 75.5,46.5 C 74.5798,55.1508 74.4132,63.8175 75,72.5C 75.6441,76.6188 77.1441,80.2855 79.5,83.5C 79.5,84.1667 79.5,84.8333 79.5,85.5C 75.3715,80.7074 73.2049,75.0408 73,68.5C 72.2232,60.8637 73.0565,53.5304 75.5,46.5 Z"/></g>
<g><path style="opacity:0.004" fill="#fefffe" d="M 44.5,73.5 C 45.8333,74.1667 45.8333,74.1667 44.5,73.5 Z"/></g>
<g><path style="opacity:1" fill="#276b13" d="M 87.5,114.5 C 87.5,115.5 87.5,116.5 87.5,117.5C 84.8602,117.046 82.5268,115.879 80.5,114C 75.3802,113.108 70.7136,111.108 66.5,108C 63.8333,107.333 61.1667,107.333 58.5,108C 57.9781,108.561 57.6448,109.228 57.5,110C 58.9281,112.219 60.9281,113.719 63.5,114.5C 66.1009,117.604 68.9343,120.604 72,123.5C 72.49,124.793 72.6567,126.127 72.5,127.5C 65.4921,127.666 58.4921,127.5 51.5,127C 50.1667,126 48.8333,125 47.5,124C 37.1532,122.483 29.8198,116.983 25.5,107.5C 24.2638,106.754 22.9305,106.421 21.5,106.5C 21.9383,103.107 21.1049,100.107 19,97.5C 17.4126,98.727 16.0793,98.3937 15,96.5C 13.2035,91.0913 11.0368,85.9246 8.5,81C 8.83333,80.5 9.16667,80 9.5,79.5C 14.8693,77.9819 20.3693,77.3152 26,77.5C 33.1728,77.7901 40.3395,78.1234 47.5,78.5C 47.5,79.5 47.5,80.5 47.5,81.5C 50.1873,81.3359 52.854,81.5026 55.5,82C 63.1977,86.3543 70.3643,91.521 77,97.5C 80.0399,103.606 83.5399,109.273 87.5,114.5 Z"/></g>
<g><path style="opacity:0.933" fill="#40722b" d="M 79.5,85.5 C 82.7504,87.2433 85.5838,89.5766 88,92.5C 91.3966,99.8583 97.2299,102.858 105.5,101.5C 106.801,94.3266 108.134,87.16 109.5,80C 108.78,74.7748 107.614,69.6081 106,64.5C 105.072,61.9648 103.238,60.9648 100.5,61.5C 99.281,56.9245 97.6143,52.5911 95.5,48.5C 94.1779,48.33 93.0113,48.6634 92,49.5C 89.3488,44.3426 85.1821,41.3426 79.5,40.5C 77.3634,47.4823 76.0301,54.6489 75.5,62C 76.2457,69.3112 77.579,76.4779 79.5,83.5C 77.1441,80.2855 75.6441,76.6188 75,72.5C 74.4132,63.8175 74.5798,55.1508 75.5,46.5C 75.4802,37.6551 79.1469,35.4885 86.5,40C 111.038,56.2944 117.538,78.1278 106,105.5C 105.311,106.357 104.478,107.023 103.5,107.5C 93.2302,102.56 85.2302,95.2269 79.5,85.5 Z"/></g>
<g><path style="opacity:0.09" fill="#68875c" d="M 36.5,74.5 C 27.0281,75.0298 17.5281,76.3631 8,78.5C 7.5,78.8333 7,79.1667 6.5,79.5C 7.48224,82.0956 8.14891,84.7623 8.5,87.5C 5.44846,84.1299 5.11513,80.6299 7.5,77C 17.0608,74.9767 26.7274,74.1434 36.5,74.5 Z"/></g>
<g><path style="opacity:0.814" fill="#9bc97f" d="M 128.5,48.5 C 127.892,53.6216 126.058,58.2883 123,62.5C 118.555,76.8998 117.388,91.5664 119.5,106.5C 118.833,105.5 118.167,104.5 117.5,103.5C 114.125,83.7086 117.792,65.3753 128.5,48.5 Z"/></g>
<g><path style="opacity:0.004" fill="#fefffe" d="M 290.5,98.5 C 291.833,99.1667 291.833,99.1667 290.5,98.5 Z"/></g>
<g><path style="opacity:1" fill="#366122" d="M 36.5,74.5 C 60.9037,77.2379 77.9037,89.9045 87.5,112.5C 87.5,113.167 87.5,113.833 87.5,114.5C 83.5399,109.273 80.0399,103.606 77,97.5C 70.3643,91.521 63.1977,86.3543 55.5,82C 52.854,81.5026 50.1873,81.3359 47.5,81.5C 47.5,80.5 47.5,79.5 47.5,78.5C 40.3395,78.1234 33.1728,77.7901 26,77.5C 20.3693,77.3152 14.8693,77.9819 9.5,79.5C 9.16667,80 8.83333,80.5 8.5,81C 11.0368,85.9246 13.2035,91.0913 15,96.5C 16.0793,98.3937 17.4126,98.727 19,97.5C 21.1049,100.107 21.9383,103.107 21.5,106.5C 22.9305,106.421 24.2638,106.754 25.5,107.5C 29.8198,116.983 37.1532,122.483 47.5,124C 48.8333,125 50.1667,126 51.5,127C 58.4921,127.5 65.4921,127.666 72.5,127.5C 72.6567,126.127 72.49,124.793 72,123.5C 68.9343,120.604 66.1009,117.604 63.5,114.5C 68.7757,118.437 73.7757,122.771 78.5,127.5C 75.0948,128.88 71.4281,129.546 67.5,129.5C 57.8171,129.503 48.4838,127.836 39.5,124.5C 24.7084,115.926 14.3751,103.592 8.5,87.5C 8.14891,84.7623 7.48224,82.0956 6.5,79.5C 7,79.1667 7.5,78.8333 8,78.5C 17.5281,76.3631 27.0281,75.0298 36.5,74.5 Z"/></g>
<g><path style="opacity:0.004" fill="#fefffe" d="M 2.5,110.5 C 3.83333,111.167 3.83333,111.167 2.5,110.5 Z"/></g>
<g><path style="opacity:1" fill="#535423" d="M 87.5,114.5 C 87.5,113.833 87.5,113.167 87.5,112.5C 89.5918,115.088 90.9251,118.088 91.5,121.5C 89.3185,121.086 86.9852,120.919 84.5,121C 82.2893,119.279 80.2893,117.279 78.5,115C 75.0199,114.699 71.6866,113.865 68.5,112.5C 67.0683,112.733 66.5683,113.4 67,114.5C 71.4358,118.428 75.2692,122.761 78.5,127.5C 73.7757,122.771 68.7757,118.437 63.5,114.5C 60.9281,113.719 58.9281,112.219 57.5,110C 57.6448,109.228 57.9781,108.561 58.5,108C 61.1667,107.333 63.8333,107.333 66.5,108C 70.7136,111.108 75.3802,113.108 80.5,114C 82.5268,115.879 84.8602,117.046 87.5,117.5C 87.5,116.5 87.5,115.5 87.5,114.5 Z"/></g>
<g><path style="opacity:0.133" fill="#b4cf9f" d="M 117.5,103.5 C 118.167,104.5 118.833,105.5 119.5,106.5C 120.461,111.889 122.294,116.889 125,121.5C 128.963,126.606 132.463,131.939 135.5,137.5C 125.851,128.208 119.851,116.874 117.5,103.5 Z"/></g>
<g><path style="opacity:1" fill="#80b069" d="M 255.5,138.5 C 255.351,137.448 255.517,136.448 256,135.5C 260.709,134.296 262.876,131.296 262.5,126.5C 263.675,126.719 264.675,126.386 265.5,125.5C 278.071,109.264 286.571,91.2642 291,71.5C 291.497,69.1902 291.663,66.8568 291.5,64.5C 284.859,63.9172 278.193,63.5839 271.5,63.5C 251.27,63.925 232.27,68.925 214.5,78.5C 213.866,80.5668 212.866,82.4002 211.5,84C 207.526,85.9541 203.526,87.9541 199.5,90C 196.266,93.5088 192.766,96.6755 189,99.5C 184.712,109.408 179.879,119.075 174.5,128.5C 172.829,133.849 171.496,139.183 170.5,144.5C 171.833,144.5 173.167,144.5 174.5,144.5C 175.834,141.645 177.834,139.145 180.5,137C 183.921,134.623 187.588,132.79 191.5,131.5C 182.412,139.044 173.745,147.044 165.5,155.5C 164.833,155.5 164.167,155.5 163.5,155.5C 178.761,85.6703 222.094,54.8369 293.5,63C 294.116,64.4002 294.449,65.9002 294.5,67.5C 290.117,90.594 280.617,111.261 266,129.5C 262.928,133.078 259.428,136.078 255.5,138.5 Z"/></g>
<g><path style="opacity:1" fill="#81ac61" d="M 223.5,110.5 C 212.853,117.471 202.187,124.471 191.5,131.5C 192.942,130.18 193.608,128.514 193.5,126.5C 195.58,125.956 197.58,125.122 199.5,124C 201.197,120.816 203.864,119.15 207.5,119C 212.078,114.545 217.411,111.712 223.5,110.5 Z"/></g>
<g><path style="opacity:1" fill="#94d57c" d="M 119.5,106.5 C 121.213,107.635 121.88,109.302 121.5,111.5C 122.5,111.5 123.5,111.5 124.5,111.5C 124.259,114.794 125.092,117.794 127,120.5C 131.643,124.714 135.143,129.714 137.5,135.5C 139.559,136.567 141.392,137.9 143,139.5C 143.333,139.167 143.667,138.833 144,138.5C 145.58,142.912 148.413,146.245 152.5,148.5C 153.95,147.345 154.95,145.845 155.5,144C 156.448,143.517 157.448,143.351 158.5,143.5C 156.27,144.775 154.937,146.775 154.5,149.5C 153.277,150.614 151.944,150.781 150.5,150C 145.617,145.587 140.617,141.42 135.5,137.5C 132.463,131.939 128.963,126.606 125,121.5C 122.294,116.889 120.461,111.889 119.5,106.5 Z"/></g>
<g><path style="opacity:0.667" fill="#486137" d="M 39.5,124.5 C 48.4838,127.836 57.8171,129.503 67.5,129.5C 71.4281,129.546 75.0948,128.88 78.5,127.5C 79.4345,128.568 79.7678,129.901 79.5,131.5C 71.1198,131.738 62.7865,131.238 54.5,130C 49.005,129.227 44.005,127.394 39.5,124.5 Z"/></g>
<g><path style="opacity:0.004" fill="#fefffe" d="M 278.5,129.5 C 279.833,130.167 279.833,130.167 278.5,129.5 Z"/></g>
<g><path style="opacity:0.827" fill="#9ac980" d="M 152.5,57.5 C 172.058,79.1817 176.558,103.848 166,131.5C 163.072,139.191 159.239,146.358 154.5,153C 151.458,152.673 148.791,151.34 146.5,149C 141.955,145.956 138.289,142.123 135.5,137.5C 140.617,141.42 145.617,145.587 150.5,150C 151.944,150.781 153.277,150.614 154.5,149.5C 154.937,146.775 156.27,144.775 158.5,143.5C 162.136,134.847 165.302,125.847 168,116.5C 169.398,102.547 168.232,88.8799 164.5,75.5C 163.5,75.5 162.5,75.5 161.5,75.5C 159.963,70.1016 157.13,65.4349 153,61.5C 152.51,60.2068 152.343,58.8734 152.5,57.5 Z"/></g>
<g><path style="opacity:1" fill="#454016" d="M 215.5,127.5 C 215.092,124.401 216.259,122.067 219,120.5C 219.483,119.552 219.649,118.552 219.5,117.5C 215.855,118.987 212.189,120.487 208.5,122C 204.917,127.116 200.25,130.782 194.5,133C 191.443,135.723 188.11,138.056 184.5,140C 181.991,144.518 178.324,147.518 173.5,149C 172.278,153.056 169.611,155.556 165.5,156.5C 165.5,156.167 165.5,155.833 165.5,155.5C 173.745,147.044 182.412,139.044 191.5,131.5C 202.187,124.471 212.853,117.471 223.5,110.5C 226.394,109.039 229.394,108.206 232.5,108C 226.708,114.438 221.041,120.938 215.5,127.5 Z"/></g>
<g><path style="opacity:1" fill="#413912" d="M 214.5,127.5 C 213.833,129.167 213.167,130.833 212.5,132.5C 205.102,140.965 198.435,149.965 192.5,159.5C 193.695,154.778 195.695,150.445 198.5,146.5C 203.6,141.403 207.933,135.736 211.5,129.5C 212.357,128.575 213.357,127.908 214.5,127.5 Z"/></g>
<g><path style="opacity:0.004" fill="#fefffe" d="M 65.5,134.5 C 66.8333,135.167 66.8333,135.167 65.5,134.5 Z"/></g>
<g><path style="opacity:0.004" fill="#fefffe" d="M 80.5,137.5 C 81.8333,138.167 81.8333,138.167 80.5,137.5 Z"/></g>
<g><path style="opacity:1" fill="#2f811b" d="M 70.5,158.5 C 70.1583,159.338 69.4916,159.672 68.5,159.5C 64.0147,162.244 59.348,164.744 54.5,167C 40.6355,170.461 27.6355,168.628 15.5,161.5C 13.7745,159.772 12.4411,157.772 11.5,155.5C 24.249,139.503 40.5824,134.336 60.5,140C 65.2924,141.975 69.959,144.142 74.5,146.5C 75.6139,147.723 75.7805,149.056 75,150.5C 73.1667,152.333 71.3333,154.167 69.5,156C 70.2524,156.671 70.5858,157.504 70.5,158.5 Z"/></g>
<g><path style="opacity:0.882" fill="#487635" d="M 70.5,158.5 C 70.5858,157.504 70.2524,156.671 69.5,156C 71.3333,154.167 73.1667,152.333 75,150.5C 75.7805,149.056 75.6139,147.723 74.5,146.5C 69.959,144.142 65.2924,141.975 60.5,140C 40.5824,134.336 24.249,139.503 11.5,155.5C 12.4411,157.772 13.7745,159.772 15.5,161.5C 27.6355,168.628 40.6355,170.461 54.5,167C 59.348,164.744 64.0147,162.244 68.5,159.5C 57.3776,169.498 44.7109,172.998 30.5,170C 21.9709,167.984 14.1376,164.484 7,159.5C 6.33333,158.167 6.33333,156.833 7,155.5C 26.5656,132.455 49.3989,128.621 75.5,144C 77.4116,145.2 78.7449,146.867 79.5,149C 76.9988,152.667 73.9988,155.834 70.5,158.5 Z"/></g>
<g><path style="opacity:1" fill="#7a4035" d="M 91.5,121.5 C 107.116,132.948 120.949,146.282 133,161.5C 134.555,163.443 135.722,165.61 136.5,168C 128.994,178.678 121.994,189.678 115.5,201C 114.256,201.456 113.423,200.956 113,199.5C 107.343,176.86 98.0095,155.86 85,136.5C 83.2962,134.627 81.4628,132.96 79.5,131.5C 79.7678,129.901 79.4345,128.568 78.5,127.5C 75.2692,122.761 71.4358,118.428 67,114.5C 66.5683,113.4 67.0683,112.733 68.5,112.5C 71.6866,113.865 75.0199,114.699 78.5,115C 80.2893,117.279 82.2893,119.279 84.5,121C 86.9852,120.919 89.3185,121.086 91.5,121.5 Z"/></g>
<g><path style="opacity:1" fill="#83ac68" d="M 212.5,132.5 C 212.005,134.482 211.505,136.482 211,138.5C 208.174,141.328 206.174,144.662 205,148.5C 201.01,150.49 198.51,153.657 197.5,158C 200.833,158.667 204.167,158.667 207.5,158C 212.279,156.272 217.279,155.272 222.5,155C 233.524,150.452 244.191,145.285 254.5,139.5C 250.91,143.576 246.577,146.743 241.5,149C 226.324,156.294 210.324,160.461 193.5,161.5C 192.662,161.158 192.328,160.492 192.5,159.5C 198.435,149.965 205.102,140.965 212.5,132.5 Z"/></g>
<g><path style="opacity:0.212" fill="#82625a" d="M 163.5,155.5 C 164.167,155.5 164.833,155.5 165.5,155.5C 165.5,155.833 165.5,156.167 165.5,156.5C 160.818,160.02 156.984,164.353 154,169.5C 153.329,170.252 152.496,170.586 151.5,170.5C 155.26,165.317 159.26,160.317 163.5,155.5 Z"/></g>
<g><path style="opacity:1" fill="#572e21" d="M 215.5,127.5 C 215.167,127.5 214.833,127.5 214.5,127.5C 213.357,127.908 212.357,128.575 211.5,129.5C 207.933,135.736 203.6,141.403 198.5,146.5C 195.695,150.445 193.695,154.778 192.5,159.5C 192.328,160.492 192.662,161.158 193.5,161.5C 187.083,169.994 181.417,178.994 176.5,188.5C 171.435,194.597 168.101,201.597 166.5,209.5C 164.676,214.325 162.676,218.992 160.5,223.5C 157.492,228.276 155.659,233.61 155,239.5C 154.781,238.062 154.281,236.729 153.5,235.5C 148.006,235.451 142.339,235.617 136.5,236C 134.01,237.943 131.177,239.109 128,239.5C 123.992,238.824 120.492,238.491 117.5,238.5C 118.935,236.599 120.602,236.266 122.5,237.5C 123.047,234.269 124.214,230.936 126,227.5C 127,226.833 128,226.167 129,225.5C 131.116,219.379 134.116,213.712 138,208.5C 138.642,205.723 139.476,203.056 140.5,200.5C 140.338,197.341 139.005,194.841 136.5,193C 139.006,188.345 141.673,183.845 144.5,179.5C 146.111,175.949 148.444,172.949 151.5,170.5C 152.496,170.586 153.329,170.252 154,169.5C 156.984,164.353 160.818,160.02 165.5,156.5C 169.611,155.556 172.278,153.056 173.5,149C 178.324,147.518 181.991,144.518 184.5,140C 188.11,138.056 191.443,135.723 194.5,133C 200.25,130.782 204.917,127.116 208.5,122C 212.189,120.487 215.855,118.987 219.5,117.5C 219.649,118.552 219.483,119.552 219,120.5C 216.259,122.067 215.092,124.401 215.5,127.5 Z"/></g>
<g><path style="opacity:0.165" fill="#6e945c" d="M 246.5,166.5 C 236.416,166.223 226.416,166.89 216.5,168.5C 219.258,167.239 222.258,166.406 225.5,166C 232.679,165.179 239.679,165.345 246.5,166.5 Z"/></g>
<g><path style="opacity:0.004" fill="#fefffe" d="M 200.5,168.5 C 201.833,169.167 201.833,169.167 200.5,168.5 Z"/></g>
<g><path style="opacity:0.004" fill="#fefffe" d="M 203.5,168.5 C 204.833,169.167 204.833,169.167 203.5,168.5 Z"/></g>
<g><path style="opacity:1" fill="#2e811a" d="M 287.5,191.5 C 289.327,194.179 290.994,197.012 292.5,200C 291.728,201.221 290.728,202.221 289.5,203C 273.745,210.684 257.078,214.018 239.5,213C 233.433,210.132 227.099,208.132 220.5,207C 217.074,202.63 212.741,199.797 207.5,198.5C 204.893,195.39 202.06,192.39 199,189.5C 197.906,187.922 197.072,186.255 196.5,184.5C 195.972,183.279 195.305,182.113 194.5,181C 194.833,180.667 195.167,180.333 195.5,180C 202.871,177.494 210.204,174.994 217.5,172.5C 217.5,171.5 217.5,170.5 217.5,169.5C 225.818,168.593 234.151,168.427 242.5,169C 244.553,170.08 246.72,170.914 249,171.5C 251.064,170.409 253.231,170.242 255.5,171C 258.757,172.589 262.09,174.089 265.5,175.5C 267.26,178.555 269.927,180.388 273.5,181C 277.341,185.738 282.008,189.238 287.5,191.5 Z"/></g>
<g><path style="opacity:0.125" fill="#7a986b" d="M 216.5,168.5 C 208.374,171.77 200.374,175.437 192.5,179.5C 199.52,173.927 207.52,170.26 216.5,168.5 Z"/></g>
<g><path style="opacity:0.898" fill="#44792d" d="M 246.5,166.5 C 254.859,167.453 262.526,170.287 269.5,175C 274.118,177.95 278.452,181.284 282.5,185C 284.79,186.777 286.457,188.944 287.5,191.5C 282.008,189.238 277.341,185.738 273.5,181C 269.927,180.388 267.26,178.555 265.5,175.5C 262.09,174.089 258.757,172.589 255.5,171C 253.231,170.242 251.064,170.409 249,171.5C 246.72,170.914 244.553,170.08 242.5,169C 234.151,168.427 225.818,168.593 217.5,169.5C 217.5,170.5 217.5,171.5 217.5,172.5C 210.204,174.994 202.871,177.494 195.5,180C 195.167,180.333 194.833,180.667 194.5,181C 195.305,182.113 195.972,183.279 196.5,184.5C 194.469,183.461 193.136,181.795 192.5,179.5C 200.374,175.437 208.374,171.77 216.5,168.5C 226.416,166.89 236.416,166.223 246.5,166.5 Z"/></g>
<g><path style="opacity:0.004" fill="#fefffe" d="M -0.5,185.5 C 0.833333,186.167 0.833333,186.167 -0.5,185.5 Z"/></g>
<g><path style="opacity:0.318" fill="#87a27a" d="M 192.5,179.5 C 193.136,181.795 194.469,183.461 196.5,184.5C 197.072,186.255 197.906,187.922 199,189.5C 202.06,192.39 204.893,195.39 207.5,198.5C 200.601,194.101 195.268,188.268 191.5,181C 191.57,180.235 191.903,179.735 192.5,179.5 Z"/></g>
<g><path style="opacity:0.129" fill="#886665" d="M 176.5,188.5 C 173.403,195.691 170.07,202.691 166.5,209.5C 168.101,201.597 171.435,194.597 176.5,188.5 Z"/></g>
<g><path style="opacity:0.004" fill="#fefffe" d="M 179.5,199.5 C 180.833,200.167 180.833,200.167 179.5,199.5 Z"/></g>
<g><path style="opacity:0.004" fill="#fefffe" d="M 20.5,203.5 C 21.8333,204.167 21.8333,204.167 20.5,203.5 Z"/></g>
<g><path style="opacity:0.004" fill="#fefffe" d="M 65.5,206.5 C 66.8333,207.167 66.8333,207.167 65.5,206.5 Z"/></g>
<g><path style="opacity:0.905" fill="#527e3d" d="M 287.5,191.5 C 290.527,193.529 292.86,196.196 294.5,199.5C 293.695,201.472 292.361,202.972 290.5,204C 273.976,213.551 256.309,217.217 237.5,215C 225.807,212.326 215.807,206.826 207.5,198.5C 212.741,199.797 217.074,202.63 220.5,207C 227.099,208.132 233.433,210.132 239.5,213C 257.078,214.018 273.745,210.684 289.5,203C 290.728,202.221 291.728,201.221 292.5,200C 290.994,197.012 289.327,194.179 287.5,191.5 Z"/></g>
<g><path style="opacity:0.004" fill="#fefffe" d="M 278.5,214.5 C 279.833,215.167 279.833,215.167 278.5,214.5 Z"/></g>
<g><path style="opacity:0.169" fill="#7a7076" d="M 190.5,217.5 C 189.903,218.139 189.07,218.472 188,218.5C 185.575,217.084 183.409,215.25 181.5,213C 177.579,211.861 174.246,212.695 171.5,215.5C 172.537,212.234 174.87,210.567 178.5,210.5C 182.013,211.344 184.68,213.344 186.5,216.5C 187.689,217.429 189.022,217.762 190.5,217.5 Z"/></g>
<g><path style="opacity:0.004" fill="#fefffe" d="M 35.5,217.5 C 36.8333,218.167 36.8333,218.167 35.5,217.5 Z"/></g>
<g><path style="opacity:1" fill="#251313" d="M 179.5,216.5 C 181.375,219.848 182.375,223.514 182.5,227.5C 181.178,227.67 180.011,227.337 179,226.5C 178.884,223.068 177.717,220.068 175.5,217.5C 176.689,216.571 178.022,216.238 179.5,216.5 Z"/></g>
<g><path style="opacity:1" fill="#2f2527" d="M 219.5,220.5 C 221.941,221.709 223.941,223.376 225.5,225.5C 214.519,219.408 202.852,217.408 190.5,219.5C 189.07,219.421 187.736,219.754 186.5,220.5C 184.67,217.839 182.337,215.672 179.5,214C 177.326,213.123 175.659,213.623 174.5,215.5C 173.053,216.134 172.387,217.301 172.5,219C 173.071,221.544 173.738,224.044 174.5,226.5C 173.21,225.942 172.377,224.942 172,223.5C 171.503,220.854 171.336,218.187 171.5,215.5C 174.246,212.695 177.579,211.861 181.5,213C 183.409,215.25 185.575,217.084 188,218.5C 189.07,218.472 189.903,218.139 190.5,217.5C 195.721,217.538 200.055,215.705 203.5,212C 208.81,210.635 212.144,212.635 213.5,218C 215.723,218.566 217.723,219.4 219.5,220.5 Z"/></g>
<g><path style="opacity:1" fill="#877a7a" d="M 205.5,213.5 C 207.912,213.244 209.579,214.244 210.5,216.5C 208.604,217.466 206.604,217.799 204.5,217.5C 204.433,216.041 204.766,214.708 205.5,213.5 Z"/></g>
<g><path style="opacity:0.141" fill="#716562" d="M 112.5,222.5 C 111.883,222.389 111.383,222.056 111,221.5C 110.506,223.134 110.34,224.801 110.5,226.5C 109.566,225.432 109.232,224.099 109.5,222.5C 108.167,222.5 106.833,222.5 105.5,222.5C 103.801,222.527 102.467,223.194 101.5,224.5C 101.5,223.5 101.5,222.5 101.5,221.5C 102.286,220.185 100.286,220.185 95.5,221.5C 100.084,218.094 105.084,217.594 110.5,220C 111.756,220.417 112.423,221.25 112.5,222.5 Z"/></g>
<g><path style="opacity:1" fill="#3e3126" d="M 101.5,224.5 C 99.5395,226.312 97.2061,227.312 94.5,227.5C 93.4489,226.778 92.7822,225.778 92.5,224.5C 92.5,222.5 93.5,221.5 95.5,221.5C 100.286,220.185 102.286,220.185 101.5,221.5C 101.5,222.5 101.5,223.5 101.5,224.5 Z"/></g>
<g><path style="opacity:1" fill="#837365" d="M 114.5,222.5 C 116.674,222.25 118.341,221.25 119.5,219.5C 119.369,220.239 119.536,220.906 120,221.5C 121.62,219.759 123.12,217.925 124.5,216C 125.448,215.517 126.448,215.351 127.5,215.5C 126.483,218.027 126.483,220.527 127.5,223C 126.66,224.171 125.827,225.338 125,226.5C 122.657,227.127 120.49,228.127 118.5,229.5C 117.614,228.675 117.281,227.675 117.5,226.5C 114.45,226.354 113.45,225.02 114.5,222.5 Z"/></g>
<g><path style="opacity:1" fill="#897176" d="M 174.5,215.5 C 176.415,215.216 178.081,215.549 179.5,216.5C 178.022,216.238 176.689,216.571 175.5,217.5C 177.717,220.068 178.884,223.068 179,226.5C 180.011,227.337 181.178,227.67 182.5,227.5C 181.852,229.086 181.352,230.753 181,232.5C 180.329,231.748 179.496,231.414 178.5,231.5C 178.167,231.5 177.833,231.5 177.5,231.5C 178.263,230.732 179.263,230.232 180.5,230C 178.595,228.579 176.595,227.412 174.5,226.5C 173.738,224.044 173.071,221.544 172.5,219C 172.387,217.301 173.053,216.134 174.5,215.5 Z"/></g>
<g><path style="opacity:1" fill="#e0d2d1" d="M 225.5,225.5 C 231.834,228.837 236.834,233.504 240.5,239.5C 240.5,240.5 240.5,241.5 240.5,242.5C 240.167,242.5 239.833,242.5 239.5,242.5C 237.136,235.966 232.802,231.132 226.5,228C 217.322,222.372 207.322,219.872 196.5,220.5C 195.183,220.821 193.849,221.154 192.5,221.5C 191.287,221.253 190.62,220.586 190.5,219.5C 202.852,217.408 214.519,219.408 225.5,225.5 Z"/></g>
<g><path style="opacity:0.004" fill="#fefffe" d="M 53.5,225.5 C 54.8333,226.167 54.8333,226.167 53.5,225.5 Z"/></g>
<g><path style="opacity:1" fill="#a18d8b" d="M 196.5,220.5 C 207.322,219.872 217.322,222.372 226.5,228C 232.802,231.132 237.136,235.966 239.5,242.5C 235.5,242.5 231.5,242.5 227.5,242.5C 227.5,244.167 227.5,245.833 227.5,247.5C 226.691,245.708 226.191,243.708 226,241.5C 225.623,240.058 224.79,239.058 223.5,238.5C 221.709,235.213 219.042,232.713 215.5,231C 209.377,227.603 203.044,224.77 196.5,222.5C 196.5,221.833 196.5,221.167 196.5,220.5 Z"/></g>
<g><path style="opacity:0.016" fill="#7f7477" d="M 171.5,215.5 C 171.336,218.187 171.503,220.854 172,223.5C 172.377,224.942 173.21,225.942 174.5,226.5C 174.703,228.044 175.37,229.378 176.5,230.5C 173.549,236.068 170.882,241.734 168.5,247.5C 168.573,249.027 167.906,250.027 166.5,250.5C 164.621,251.341 162.621,251.675 160.5,251.5C 161.878,250.766 163.378,250.099 165,249.5C 168.557,243.552 171.724,237.386 174.5,231C 173.722,228.61 172.555,226.443 171,224.5C 170.195,221.304 170.362,218.304 171.5,215.5 Z"/></g>
<g><path style="opacity:1" fill="#f6e4d3" d="M 196.5,222.5 C 203.044,224.77 209.377,227.603 215.5,231C 219.042,232.713 221.709,235.213 223.5,238.5C 213.626,231.817 202.959,226.65 191.5,223C 193.134,222.506 194.801,222.34 196.5,222.5 Z"/></g>
<g><path style="opacity:0.698" fill="#554a4d" d="M 219.5,220.5 C 240.328,226.482 247.495,239.815 241,260.5C 240.329,261.252 239.496,261.586 238.5,261.5C 242.481,254.335 243.148,247.002 240.5,239.5C 236.834,233.504 231.834,228.837 225.5,225.5C 223.941,223.376 221.941,221.709 219.5,220.5 Z"/></g>
<g><path style="opacity:1" fill="#cfc3b2" d="M 105.5,222.5 C 106.833,222.5 108.167,222.5 109.5,222.5C 109.232,224.099 109.566,225.432 110.5,226.5C 111.906,226.973 112.573,227.973 112.5,229.5C 108.996,231.353 105.329,232.686 101.5,233.5C 101.573,231.973 100.906,230.973 99.5,230.5C 99.1961,229.85 98.8627,229.183 98.5,228.5C 100.098,228.39 101.765,228.057 103.5,227.5C 104.322,225.861 104.989,224.195 105.5,222.5 Z"/></g>
<g><path style="opacity:0.004" fill="#fefffe" d="M 257.5,231.5 C 258.833,232.167 258.833,232.167 257.5,231.5 Z"/></g>
<g><path style="opacity:0.004" fill="#fefffe" d="M 50.5,233.5 C 51.8333,234.167 51.8333,234.167 50.5,233.5 Z"/></g>
<g><path style="opacity:1" fill="#a69582" d="M 105.5,222.5 C 104.989,224.195 104.322,225.861 103.5,227.5C 101.765,228.057 100.098,228.39 98.5,228.5C 98.8627,229.183 99.1961,229.85 99.5,230.5C 97.9717,232.279 96.6384,234.279 95.5,236.5C 93.5,236.5 91.5,236.5 89.5,236.5C 90.9731,233.204 92.6398,230.204 94.5,227.5C 97.2061,227.312 99.5395,226.312 101.5,224.5C 102.467,223.194 103.801,222.527 105.5,222.5 Z"/></g>
<g><path style="opacity:1" fill="#796d5e" d="M 112.5,229.5 C 113.545,232.865 112.211,235.199 108.5,236.5C 105.762,236.113 103.428,235.113 101.5,233.5C 105.329,232.686 108.996,231.353 112.5,229.5 Z"/></g>
<g><path style="opacity:0.953" fill="#271b1b" d="M 174.5,226.5 C 176.595,227.412 178.595,228.579 180.5,230C 179.263,230.232 178.263,230.732 177.5,231.5C 175.298,237.348 172.298,242.681 168.5,247.5C 170.882,241.734 173.549,236.068 176.5,230.5C 175.37,229.378 174.703,228.044 174.5,226.5 Z"/></g>
<g><path style="opacity:1" fill="#f0e3d3" d="M 177.5,231.5 C 177.833,231.5 178.167,231.5 178.5,231.5C 175.375,243.775 169.041,253.942 159.5,262C 158.563,262.692 157.897,262.525 157.5,261.5C 161.628,258.71 164.628,255.043 166.5,250.5C 167.906,250.027 168.573,249.027 168.5,247.5C 172.298,242.681 175.298,237.348 177.5,231.5 Z"/></g>
<g><path style="opacity:1" fill="#d7cab9" d="M 89.5,236.5 C 91.5,236.5 93.5,236.5 95.5,236.5C 100.093,236.674 104.426,237.674 108.5,239.5C 112.387,235.243 113.387,235.91 111.5,241.5C 114.659,242.885 117.992,243.885 121.5,244.5C 123.5,244.5 125.5,244.5 127.5,244.5C 127.5,245.5 127.5,246.5 127.5,247.5C 121.129,246.893 114.796,246.893 108.5,247.5C 106.927,247.248 105.594,246.582 104.5,245.5C 104.719,244.325 104.386,243.325 103.5,242.5C 100.5,243.833 97.5,243.833 94.5,242.5C 90.7067,246.453 86.7067,250.119 82.5,253.5C 80.4883,255.341 78.155,256.341 75.5,256.5C 69.1006,259.191 68.1006,257.691 72.5,252C 75.7677,251.89 78.1011,250.39 79.5,247.5C 82.5491,245.263 84.7158,242.263 86,238.5C 86.8159,237.177 87.9826,236.511 89.5,236.5 Z"/></g>
<g><path style="opacity:1" fill="#694e4f" d="M 239.5,242.5 C 239.833,242.5 240.167,242.5 240.5,242.5C 239.962,244.117 239.629,245.784 239.5,247.5C 237.551,246.275 236.218,246.942 235.5,249.5C 234.5,248.833 233.5,248.167 232.5,247.5C 230.801,248.815 229.135,248.815 227.5,247.5C 227.5,245.833 227.5,244.167 227.5,242.5C 231.5,242.5 235.5,242.5 239.5,242.5 Z"/></g>
<g><path style="opacity:1" fill="#53372c" d="M 144.5,179.5 C 141.673,183.845 139.006,188.345 136.5,193C 139.005,194.841 140.338,197.341 140.5,200.5C 139.476,203.056 138.642,205.723 138,208.5C 134.116,213.712 131.116,219.379 129,225.5C 128,226.167 127,226.833 126,227.5C 124.214,230.936 123.047,234.269 122.5,237.5C 120.602,236.266 118.935,236.599 117.5,238.5C 120.492,238.491 123.992,238.824 128,239.5C 131.177,239.109 134.01,237.943 136.5,236C 142.339,235.617 148.006,235.451 153.5,235.5C 154.281,236.729 154.781,238.062 155,239.5C 155.659,233.61 157.492,228.276 160.5,223.5C 157.857,232.738 155.524,242.071 153.5,251.5C 155.833,251.5 158.167,251.5 160.5,251.5C 162.621,251.675 164.621,251.341 166.5,250.5C 164.628,255.043 161.628,258.71 157.5,261.5C 156.577,262.303 155.577,262.47 154.5,262C 157.344,259.655 160.01,257.155 162.5,254.5C 160.235,253.353 157.902,253.186 155.5,254C 153.563,254.122 152.23,254.955 151.5,256.5C 149.537,254.033 148.371,251.033 148,247.5C 147.311,246.643 146.478,245.977 145.5,245.5C 143.51,246.873 141.343,247.873 139,248.5C 138.251,249.635 138.417,250.635 139.5,251.5C 145.005,252.405 145.505,254.072 141,256.5C 137.371,254.382 133.538,252.715 129.5,251.5C 128.264,252.246 126.93,252.579 125.5,252.5C 127.39,250.41 129.057,248.077 130.5,245.5C 127.898,241.873 124.898,241.539 121.5,244.5C 117.992,243.885 114.659,242.885 111.5,241.5C 113.387,235.91 112.387,235.243 108.5,239.5C 104.426,237.674 100.093,236.674 95.5,236.5C 96.6384,234.279 97.9717,232.279 99.5,230.5C 100.906,230.973 101.573,231.973 101.5,233.5C 103.428,235.113 105.762,236.113 108.5,236.5C 112.211,235.199 113.545,232.865 112.5,229.5C 112.573,227.973 111.906,226.973 110.5,226.5C 110.34,224.801 110.506,223.134 111,221.5C 111.383,222.056 111.883,222.389 112.5,222.5C 113.167,222.5 113.833,222.5 114.5,222.5C 113.45,225.02 114.45,226.354 117.5,226.5C 117.281,227.675 117.614,228.675 118.5,229.5C 120.49,228.127 122.657,227.127 125,226.5C 125.827,225.338 126.66,224.171 127.5,223C 126.483,220.527 126.483,218.027 127.5,215.5C 126.448,215.351 125.448,215.517 124.5,216C 123.12,217.925 121.62,219.759 120,221.5C 119.536,220.906 119.369,220.239 119.5,219.5C 125.214,206.294 132.381,193.961 141,182.5C 142.039,181.29 143.206,180.29 144.5,179.5 Z"/></g>
<g><path style="opacity:1" fill="#572e20" d="M 151.5,256.5 C 149.95,265.371 149.283,274.371 149.5,283.5C 149.284,292.604 149.951,301.604 151.5,310.5C 152.949,316.352 154.615,322.018 156.5,327.5C 156.98,330.443 157.98,333.11 159.5,335.5C 159.5,337.167 159.5,338.833 159.5,340.5C 144.334,341.729 129.167,341.729 114,340.5C 109.114,340.507 104.614,341.174 100.5,342.5C 94.8982,342.899 92.2316,340.232 92.5,334.5C 92.5858,333.504 92.2524,332.671 91.5,332C 92.4491,331.383 93.2825,331.549 94,332.5C 94.4643,331.906 94.631,331.239 94.5,330.5C 94.0295,328.712 93.6962,326.878 93.5,325C 94.4749,314.159 95.4749,303.325 96.5,292.5C 98.5349,279.695 101.202,267.028 104.5,254.5C 105.404,253.791 105.737,252.791 105.5,251.5C 111.032,250.025 116.366,250.691 121.5,253.5C 122.925,253.377 124.258,253.043 125.5,252.5C 126.93,252.579 128.264,252.246 129.5,251.5C 133.538,252.715 137.371,254.382 141,256.5C 145.505,254.072 145.005,252.405 139.5,251.5C 138.417,250.635 138.251,249.635 139,248.5C 141.343,247.873 143.51,246.873 145.5,245.5C 146.478,245.977 147.311,246.643 148,247.5C 148.371,251.033 149.537,254.033 151.5,256.5 Z"/></g>
<g><path style="opacity:1" fill="#e8c19a" d="M 190.5,219.5 C 190.62,220.586 191.287,221.253 192.5,221.5C 193.849,221.154 195.183,220.821 196.5,220.5C 196.5,221.167 196.5,221.833 196.5,222.5C 194.801,222.34 193.134,222.506 191.5,223C 202.959,226.65 213.626,231.817 223.5,238.5C 224.79,239.058 225.623,240.058 226,241.5C 226.191,243.708 226.691,245.708 227.5,247.5C 227.666,251.514 227.499,255.514 227,259.5C 226.333,260.833 225.333,261.833 224,262.5C 221.91,261.848 219.743,261.681 217.5,262C 218.711,261.107 218.711,260.274 217.5,259.5C 216.281,260.263 215.281,261.263 214.5,262.5C 212.326,261.137 210.159,260.803 208,261.5C 207.722,260.584 207.222,259.918 206.5,259.5C 205.262,259.19 205.262,258.69 206.5,258C 202.34,256.211 198.673,257.045 195.5,260.5C 195.167,259.167 194.833,257.833 194.5,256.5C 192.317,257.692 190.984,259.525 190.5,262C 195.095,268.337 199.428,274.837 203.5,281.5C 204.17,279.709 204.837,278.042 205.5,276.5C 206.605,277.6 207.938,278.267 209.5,278.5C 211.104,281.582 210.438,284.082 207.5,286C 206.696,290.069 205.362,293.903 203.5,297.5C 202.14,295.019 201.14,295.352 200.5,298.5C 199.675,299.386 198.675,299.719 197.5,299.5C 197.545,302.077 196.545,304.077 194.5,305.5C 192.871,297.064 192.038,288.397 192,279.5C 190.378,286.359 188.378,293.025 186,299.5C 185.586,299.043 185.086,298.709 184.5,298.5C 183.334,302.166 182.167,305.833 181,309.5C 178.012,311.087 175.178,312.753 172.5,314.5C 171.224,309.949 170.391,305.282 170,300.5C 168.723,302.747 167.223,304.747 165.5,306.5C 164.28,303.309 163.447,299.975 163,296.5C 162.667,296.833 162.333,297.167 162,297.5C 161.667,294.833 161.333,292.167 161,289.5C 159.084,294.638 158.084,299.971 158,305.5C 155.957,307.382 153.791,309.049 151.5,310.5C 149.951,301.604 149.284,292.604 149.5,283.5C 149.283,274.371 149.95,265.371 151.5,256.5C 152.23,254.955 153.563,254.122 155.5,254C 157.902,253.186 160.235,253.353 162.5,254.5C 160.01,257.155 157.344,259.655 154.5,262C 155.577,262.47 156.577,262.303 157.5,261.5C 157.897,262.525 158.563,262.692 159.5,262C 169.041,253.942 175.375,243.775 178.5,231.5C 179.496,231.414 180.329,231.748 181,232.5C 181.352,230.753 181.852,229.086 182.5,227.5C 182.375,223.514 181.375,219.848 179.5,216.5C 178.081,215.549 176.415,215.216 174.5,215.5C 175.659,213.623 177.326,213.123 179.5,214C 182.337,215.672 184.67,217.839 186.5,220.5C 187.736,219.754 189.07,219.421 190.5,219.5 Z"/></g>
<g><path style="opacity:1" fill="#37201a" d="M 195.5,227.5 C 198.9,227.032 201.233,228.365 202.5,231.5C 201.23,233.428 199.563,234.761 197.5,235.5C 194.915,234.927 193.915,233.261 194.5,230.5C 193.325,230.719 192.325,230.386 191.5,229.5C 192.949,228.828 194.282,228.161 195.5,227.5 Z"/></g>
<g><path style="opacity:1" fill="#a58883" d="M 239.5,247.5 C 240.633,251.118 240.299,254.785 238.5,258.5C 236.741,259.754 235.241,259.421 234,257.5C 231.156,259.159 228.656,261.159 226.5,263.5C 218.864,265.412 211.531,264.745 204.5,261.5C 205.167,260.833 205.833,260.167 206.5,259.5C 207.222,259.918 207.722,260.584 208,261.5C 210.159,260.803 212.326,261.137 214.5,262.5C 215.281,261.263 216.281,260.263 217.5,259.5C 218.711,260.274 218.711,261.107 217.5,262C 219.743,261.681 221.91,261.848 224,262.5C 225.333,261.833 226.333,260.833 227,259.5C 227.499,255.514 227.666,251.514 227.5,247.5C 229.135,248.815 230.801,248.815 232.5,247.5C 233.5,248.167 234.5,248.833 235.5,249.5C 236.218,246.942 237.551,246.275 239.5,247.5 Z"/></g>
<g><path style="opacity:0.004" fill="#fefffe" d="M 254.5,256.5 C 255.833,257.167 255.833,257.167 254.5,256.5 Z"/></g>
<g><path style="opacity:0.769" fill="#38262a" d="M 240.5,239.5 C 243.148,247.002 242.481,254.335 238.5,261.5C 235.602,267.008 231.269,269.008 225.5,267.5C 222.742,266.033 223.075,265.367 226.5,265.5C 230.07,266.107 232.737,264.94 234.5,262C 234.333,261.5 234.167,261 234,260.5C 231.55,261.642 229.05,262.642 226.5,263.5C 228.656,261.159 231.156,259.159 234,257.5C 235.241,259.421 236.741,259.754 238.5,258.5C 240.299,254.785 240.633,251.118 239.5,247.5C 239.629,245.784 239.962,244.117 240.5,242.5C 240.5,241.5 240.5,240.5 240.5,239.5 Z"/></g>
<g><path style="opacity:1" fill="#89735d" d="M 92.5,224.5 C 92.7822,225.778 93.4489,226.778 94.5,227.5C 92.6398,230.204 90.9731,233.204 89.5,236.5C 87.9826,236.511 86.8159,237.177 86,238.5C 84.7158,242.263 82.5491,245.263 79.5,247.5C 67.8379,252.488 57.5046,259.488 48.5,268.5C 43.4731,275.027 38.6398,281.693 34,288.5C 32.7292,289.883 31.2292,290.883 29.5,291.5C 28.596,290.791 28.2627,289.791 28.5,288.5C 33.1195,282.378 38.2861,276.712 44,271.5C 46.9168,263.246 52.0835,256.746 59.5,252C 67.6637,246.417 75.9971,241.084 84.5,236C 86.3333,234.167 88.1667,232.333 90,230.5C 90.2401,228.148 91.0735,226.148 92.5,224.5 Z"/></g>
<g><path style="opacity:1" fill="#7c6e5d" d="M 125.5,252.5 C 124.258,253.043 122.925,253.377 121.5,253.5C 116.366,250.691 111.032,250.025 105.5,251.5C 105.239,248.367 103.572,247.2 100.5,248C 100.154,251.609 98.8207,254.775 96.5,257.5C 91.1269,260.916 85.4603,263.583 79.5,265.5C 79.189,264.522 78.5223,263.855 77.5,263.5C 75.0315,265.979 73.0315,265.813 71.5,263C 73.74,262.023 76.0733,261.523 78.5,261.5C 78.238,260.022 78.5713,258.689 79.5,257.5C 83.2174,254.975 87.2174,252.975 91.5,251.5C 92.4656,249.604 92.7989,247.604 92.5,245.5C 96.3358,245.126 100.336,245.126 104.5,245.5C 105.594,246.582 106.927,247.248 108.5,247.5C 114.796,246.893 121.129,246.893 127.5,247.5C 127.5,246.5 127.5,245.5 127.5,244.5C 125.5,244.5 123.5,244.5 121.5,244.5C 124.898,241.539 127.898,241.873 130.5,245.5C 129.057,248.077 127.39,250.41 125.5,252.5 Z"/></g>
<g><path style="opacity:0.973" fill="#ebd9de" d="M 226.5,265.5 C 226.5,264.833 226.5,264.167 226.5,263.5C 229.05,262.642 231.55,261.642 234,260.5C 234.167,261 234.333,261.5 234.5,262C 232.737,264.94 230.07,266.107 226.5,265.5 Z"/></g>
<g><path style="opacity:1" fill="#d39979" d="M 206.5,259.5 C 205.833,260.167 205.167,260.833 204.5,261.5C 203.833,261.833 203.167,262.167 202.5,262.5C 200.307,263.195 198.973,264.695 198.5,267C 200.265,270.596 202.598,273.763 205.5,276.5C 204.837,278.042 204.17,279.709 203.5,281.5C 199.428,274.837 195.095,268.337 190.5,262C 190.984,259.525 192.317,257.692 194.5,256.5C 194.833,257.833 195.167,259.167 195.5,260.5C 198.673,257.045 202.34,256.211 206.5,258C 205.262,258.69 205.262,259.19 206.5,259.5 Z"/></g>
<g><path style="opacity:1" fill="#36110e" d="M 204.5,261.5 C 211.531,264.745 218.864,265.412 226.5,263.5C 226.5,264.167 226.5,264.833 226.5,265.5C 223.075,265.367 222.742,266.033 225.5,267.5C 225.167,267.5 224.833,267.5 224.5,267.5C 224.006,272.932 223.006,278.265 221.5,283.5C 222.589,277.812 222.589,272.146 221.5,266.5C 219.512,266.827 217.512,267.16 215.5,267.5C 210.993,265.971 206.66,264.304 202.5,262.5C 203.167,262.167 203.833,261.833 204.5,261.5 Z"/></g>
<g><path style="opacity:0.004" fill="#fefffe" d="M 26.5,268.5 C 27.8333,269.167 27.8333,269.167 26.5,268.5 Z"/></g>
<g><path style="opacity:0.919" fill="#3f322b" d="M 105.5,251.5 C 104.596,252.209 104.263,253.209 104.5,254.5C 98.4894,262.171 90.8227,267.505 81.5,270.5C 75.8597,270.946 71.5263,273.613 68.5,278.5C 73.5516,281.384 77.385,285.384 80,290.5C 81.5655,289.939 82.8989,290.606 84,292.5C 85.4947,294.11 85.6613,295.776 84.5,297.5C 85.2305,300.109 85.7305,302.776 86,305.5C 86.8261,303.595 87.9928,303.261 89.5,304.5C 88.6258,306.747 88.2924,309.08 88.5,311.5C 87.5965,315.144 86.2632,318.644 84.5,322C 84.7432,322.902 85.0766,323.735 85.5,324.5C 85.3691,325.376 85.7025,326.043 86.5,326.5C 89.426,327.453 92.0926,328.787 94.5,330.5C 94.631,331.239 94.4643,331.906 94,332.5C 93.2825,331.549 92.4491,331.383 91.5,332C 92.2524,332.671 92.5858,333.504 92.5,334.5C 90.7041,333.207 89.0375,331.707 87.5,330C 85.1617,329.163 82.8284,328.33 80.5,327.5C 79.8333,327.833 79.1667,328.167 78.5,328.5C 81.1667,330.5 83.5,332.833 85.5,335.5C 85,336.5 84.5,337.5 84,338.5C 82.6545,336.658 80.8211,335.658 78.5,335.5C 77.9524,333.606 76.9524,331.94 75.5,330.5C 76.3482,328.591 76.6816,326.591 76.5,324.5C 77.8221,324.67 78.9887,324.337 80,323.5C 83.5807,313.309 83.2474,303.309 79,293.5C 75.3968,289.74 72.7301,286.074 71,282.5C 66.6876,281.727 65.5209,279.394 67.5,275.5C 70.6644,271.18 74.6644,267.847 79.5,265.5C 85.4603,263.583 91.1269,260.916 96.5,257.5C 98.8207,254.775 100.154,251.609 100.5,248C 103.572,247.2 105.239,248.367 105.5,251.5 Z"/></g>
<g><path style="opacity:1" fill="#7e705c" d="M 56.5,269.5 C 58.9806,269.226 60.6473,267.893 61.5,265.5C 64.6225,265.682 67.2891,264.682 69.5,262.5C 70.4147,263.328 71.0814,264.328 71.5,265.5C 66.84,268.785 62.1734,272.118 57.5,275.5C 55.2945,273.773 54.9611,271.773 56.5,269.5 Z"/></g>
<g><path style="opacity:0.184" fill="#6c5f5b" d="M 81.5,270.5 C 77.8992,272.977 74.2326,275.477 70.5,278C 77.7096,283.175 83.8763,289.342 89,296.5C 90.9939,301.664 90.8272,306.664 88.5,311.5C 88.2924,309.08 88.6258,306.747 89.5,304.5C 87.9928,303.261 86.8261,303.595 86,305.5C 85.7305,302.776 85.2305,300.109 84.5,297.5C 85.6613,295.776 85.4947,294.11 84,292.5C 82.8989,290.606 81.5655,289.939 80,290.5C 77.385,285.384 73.5516,281.384 68.5,278.5C 71.5263,273.613 75.8597,270.946 81.5,270.5 Z"/></g>
<g><path style="opacity:1" fill="#a19381" d="M 104.5,245.5 C 100.336,245.126 96.3358,245.126 92.5,245.5C 92.7989,247.604 92.4656,249.604 91.5,251.5C 87.2174,252.975 83.2174,254.975 79.5,257.5C 78.5713,258.689 78.238,260.022 78.5,261.5C 76.0733,261.523 73.74,262.023 71.5,263C 73.0315,265.813 75.0315,265.979 77.5,263.5C 78.5223,263.855 79.189,264.522 79.5,265.5C 74.6644,267.847 70.6644,271.18 67.5,275.5C 65.2776,275.559 64.2776,276.725 64.5,279C 64.8618,280.434 65.5285,281.601 66.5,282.5C 65.5,282.5 64.5,282.5 63.5,282.5C 63.7733,280.549 63.1066,279.049 61.5,278C 57.5382,276.304 53.5382,276.137 49.5,277.5C 49.5,276.167 49.5,274.833 49.5,273.5C 50.5,273.5 51.5,273.5 52.5,273.5C 52.5,272.167 52.5,270.833 52.5,269.5C 53.8333,269.5 55.1667,269.5 56.5,269.5C 54.9611,271.773 55.2945,273.773 57.5,275.5C 62.1734,272.118 66.84,268.785 71.5,265.5C 71.0814,264.328 70.4147,263.328 69.5,262.5C 67.2891,264.682 64.6225,265.682 61.5,265.5C 64.8336,264.071 68.167,262.405 71.5,260.5C 73.188,259.479 74.5213,258.145 75.5,256.5C 78.155,256.341 80.4883,255.341 82.5,253.5C 86.7067,250.119 90.7067,246.453 94.5,242.5C 97.5,243.833 100.5,243.833 103.5,242.5C 104.386,243.325 104.719,244.325 104.5,245.5 Z"/></g>
<g><path style="opacity:1" fill="#bfb09b" d="M 79.5,247.5 C 78.1011,250.39 75.7677,251.89 72.5,252C 68.1006,257.691 69.1006,259.191 75.5,256.5C 74.5213,258.145 73.188,259.479 71.5,260.5C 68.167,262.405 64.8336,264.071 61.5,265.5C 60.6473,267.893 58.9806,269.226 56.5,269.5C 55.1667,269.5 53.8333,269.5 52.5,269.5C 52.5,270.833 52.5,272.167 52.5,273.5C 51.5,273.5 50.5,273.5 49.5,273.5C 49.5,274.833 49.5,276.167 49.5,277.5C 53.5382,276.137 57.5382,276.304 61.5,278C 63.1066,279.049 63.7733,280.549 63.5,282.5C 64.5,282.5 65.5,282.5 66.5,282.5C 67.0114,284.195 67.6781,285.861 68.5,287.5C 73.2491,291.755 77.0824,296.755 80,302.5C 80.7494,303.635 80.5827,304.635 79.5,305.5C 76.4763,301.966 73.8096,298.133 71.5,294C 65.4561,291.103 59.7895,287.769 54.5,284C 51.6529,283.056 49.1529,283.556 47,285.5C 46.7508,284.376 46.2508,283.376 45.5,282.5C 42.1824,286.318 38.6824,289.985 35,293.5C 34.2274,295.352 34.7274,296.686 36.5,297.5C 36.6716,298.492 36.3382,299.158 35.5,299.5C 34.8826,299.389 34.3826,299.056 34,298.5C 33.7216,299.416 33.2216,300.082 32.5,300.5C 31.9032,299.861 31.0698,299.528 30,299.5C 28.1074,300.008 26.6074,301.008 25.5,302.5C 25.2011,300.396 25.5344,298.396 26.5,296.5C 28.321,295.272 29.321,293.606 29.5,291.5C 31.2292,290.883 32.7292,289.883 34,288.5C 38.6398,281.693 43.4731,275.027 48.5,268.5C 57.5046,259.488 67.8379,252.488 79.5,247.5 Z"/></g>
<g><path style="opacity:0.004" fill="#fefffe" d="M 287.5,286.5 C 288.833,287.167 288.833,287.167 287.5,286.5 Z"/></g>
<g><path style="opacity:0.004" fill="#fefffe" d="M 14.5,288.5 C 15.8333,289.167 15.8333,289.167 14.5,288.5 Z"/></g>
<g><path style="opacity:1" fill="#bb7765" d="M 202.5,262.5 C 206.66,264.304 210.993,265.971 215.5,267.5C 217.512,267.16 219.512,266.827 221.5,266.5C 222.589,272.146 222.589,277.812 221.5,283.5C 219.994,290.33 217.994,296.997 215.5,303.5C 212.679,303.316 211.012,304.649 210.5,307.5C 206.796,308.538 204.462,310.871 203.5,314.5C 202.883,314.611 202.383,314.944 202,315.5C 201.768,314.263 201.268,313.263 200.5,312.5C 201.048,310.468 202.381,309.468 204.5,309.5C 204.799,305.895 205.965,302.561 208,299.5C 208.589,301.863 210.089,302.863 212.5,302.5C 212.798,299.735 213.798,297.235 215.5,295C 214.584,294.626 213.75,294.126 213,293.5C 212.667,289.5 212.333,285.5 212,281.5C 211.781,280.062 211.281,278.729 210.5,277.5C 209.893,277.624 209.56,277.957 209.5,278.5C 207.938,278.267 206.605,277.6 205.5,276.5C 202.598,273.763 200.265,270.596 198.5,267C 198.973,264.695 200.307,263.195 202.5,262.5 Z"/></g>
<g><path style="opacity:1" fill="#827364" d="M 67.5,275.5 C 65.5209,279.394 66.6876,281.727 71,282.5C 72.7301,286.074 75.3968,289.74 79,293.5C 83.2474,303.309 83.5807,313.309 80,323.5C 78.9887,324.337 77.8221,324.67 76.5,324.5C 76.6816,326.591 76.3482,328.591 75.5,330.5C 76.9524,331.94 77.9524,333.606 78.5,335.5C 74.3575,333.224 73.0241,329.89 74.5,325.5C 73.8109,319.853 73.3109,314.186 73,308.5C 72.6258,307.584 72.1258,306.75 71.5,306C 63.133,299.437 54.2997,293.603 45,288.5C 41.2987,290.701 38.4654,293.701 36.5,297.5C 34.7274,296.686 34.2274,295.352 35,293.5C 38.6824,289.985 42.1824,286.318 45.5,282.5C 46.2508,283.376 46.7508,284.376 47,285.5C 49.1529,283.556 51.6529,283.056 54.5,284C 59.7895,287.769 65.4561,291.103 71.5,294C 73.8096,298.133 76.4763,301.966 79.5,305.5C 80.5827,304.635 80.7494,303.635 80,302.5C 77.0824,296.755 73.2491,291.755 68.5,287.5C 67.6781,285.861 67.0114,284.195 66.5,282.5C 65.5285,281.601 64.8618,280.434 64.5,279C 64.2776,276.725 65.2776,275.559 67.5,275.5 Z"/></g>
<g><path style="opacity:0.004" fill="#fefffe" d="M 47.5,296.5 C 48.8333,297.167 48.8333,297.167 47.5,296.5 Z"/></g>
<g><path style="opacity:0.004" fill="#fefffe" d="M 41.5,302.5 C 42.8333,303.167 42.8333,303.167 41.5,302.5 Z"/></g>
<g><path style="opacity:1" fill="#ddcfc4" d="M 32.5,300.5 C 32.0816,306.247 31.7483,311.747 31.5,317C 33.644,323.999 37.3107,330.165 42.5,335.5C 41.0951,335.76 39.7618,336.093 38.5,336.5C 27.8651,327.598 23.5317,316.264 25.5,302.5C 26.6074,301.008 28.1074,300.008 30,299.5C 31.0698,299.528 31.9032,299.861 32.5,300.5 Z"/></g>
<g><path style="opacity:1" fill="#cd8a71" d="M 200.5,312.5 C 199.581,315.089 197.914,317.089 195.5,318.5C 194.842,317.602 194.176,316.602 193.5,315.5C 192.914,315.709 192.414,316.043 192,316.5C 191.19,312.642 191.357,308.976 192.5,305.5C 192.786,307.933 193.452,307.933 194.5,305.5C 196.545,304.077 197.545,302.077 197.5,299.5C 198.675,299.719 199.675,299.386 200.5,298.5C 201.14,295.352 202.14,295.019 203.5,297.5C 205.362,293.903 206.696,290.069 207.5,286C 210.438,284.082 211.104,281.582 209.5,278.5C 209.56,277.957 209.893,277.624 210.5,277.5C 211.281,278.729 211.781,280.062 212,281.5C 212.333,285.5 212.667,289.5 213,293.5C 213.75,294.126 214.584,294.626 215.5,295C 213.798,297.235 212.798,299.735 212.5,302.5C 210.089,302.863 208.589,301.863 208,299.5C 205.965,302.561 204.799,305.895 204.5,309.5C 202.381,309.468 201.048,310.468 200.5,312.5 Z"/></g>
<g><path style="opacity:0.11" fill="#745556" d="M 96.5,292.5 C 95.4749,303.325 94.4749,314.159 93.5,325C 93.6962,326.878 94.0295,328.712 94.5,330.5C 92.0926,328.787 89.426,327.453 86.5,326.5C 85.7025,326.043 85.3691,325.376 85.5,324.5C 87.8398,325.086 90.0065,326.086 92,327.5C 92.7204,315.588 94.2204,303.921 96.5,292.5 Z"/></g>
<g><path style="opacity:1" fill="#d7a284" d="M 194.5,305.5 C 193.452,307.933 192.786,307.933 192.5,305.5C 192.361,303.663 191.694,303.33 190.5,304.5C 189.626,306.747 189.292,309.08 189.5,311.5C 187.94,313.156 186.94,315.156 186.5,317.5C 186.631,316.624 186.298,315.957 185.5,315.5C 183.833,316.5 182.5,317.833 181.5,319.5C 180.914,319.291 180.414,318.957 180,318.5C 177.039,320.862 174.539,323.528 172.5,326.5C 171.388,324.401 170.721,322.067 170.5,319.5C 169.588,317.405 168.421,315.405 167,313.5C 166.023,311.26 165.523,308.927 165.5,306.5C 167.223,304.747 168.723,302.747 170,300.5C 170.391,305.282 171.224,309.949 172.5,314.5C 175.178,312.753 178.012,311.087 181,309.5C 182.167,305.833 183.334,302.166 184.5,298.5C 185.086,298.709 185.586,299.043 186,299.5C 188.378,293.025 190.378,286.359 192,279.5C 192.038,288.397 192.871,297.064 194.5,305.5 Z"/></g>
<g><path style="opacity:1" fill="#3d2427" d="M 224.5,267.5 C 224.801,275.947 223.968,284.28 222,292.5C 218.162,305.189 213.662,317.522 208.5,329.5C 206.38,333.859 207.713,336.693 212.5,338C 210.757,339.635 208.923,339.802 207,338.5C 205.97,338.836 205.47,339.503 205.5,340.5C 203.748,340.582 202.748,339.749 202.5,338C 203.721,337.754 204.721,336.92 205.5,335.5C 207.029,326.742 209.695,318.242 213.5,310C 213.389,308.278 212.889,308.112 212,309.5C 209.964,311.592 208.464,313.926 207.5,316.5C 206.486,315.326 205.153,314.66 203.5,314.5C 204.462,310.871 206.796,308.538 210.5,307.5C 211.012,304.649 212.679,303.316 215.5,303.5C 217.994,296.997 219.994,290.33 221.5,283.5C 223.006,278.265 224.006,272.932 224.5,267.5 Z"/></g>
<g><path style="opacity:1" fill="#9d848a" d="M 205.5,335.5 C 204.844,334.378 204.511,333.045 204.5,331.5C 205.346,326.452 206.346,321.452 207.5,316.5C 208.464,313.926 209.964,311.592 212,309.5C 212.889,308.112 213.389,308.278 213.5,310C 209.695,318.242 207.029,326.742 205.5,335.5 Z"/></g>
<g><path style="opacity:1" fill="#c58874" d="M 165.5,306.5 C 165.523,308.927 166.023,311.26 167,313.5C 168.421,315.405 169.588,317.405 170.5,319.5C 169.778,319.918 169.278,320.584 169,321.5C 165.694,315.13 163.194,308.463 161.5,301.5C 160.369,303.074 160.202,304.741 161,306.5C 162.284,311.728 164.117,316.728 166.5,321.5C 166.586,322.496 166.252,323.329 165.5,324C 162.438,325.205 159.438,326.372 156.5,327.5C 154.615,322.018 152.949,316.352 151.5,310.5C 153.791,309.049 155.957,307.382 158,305.5C 158.084,299.971 159.084,294.638 161,289.5C 161.333,292.167 161.667,294.833 162,297.5C 162.333,297.167 162.667,296.833 163,296.5C 163.447,299.975 164.28,303.309 165.5,306.5 Z"/></g>
<g><path style="opacity:0.596" fill="#9f928c" d="M 28.5,288.5 C 28.2627,289.791 28.596,290.791 29.5,291.5C 29.321,293.606 28.321,295.272 26.5,296.5C 25.5344,298.396 25.2011,300.396 25.5,302.5C 23.5317,316.264 27.8651,327.598 38.5,336.5C 38.5,337.5 38.5,338.5 38.5,339.5C 24.118,328.67 19.2847,314.336 24,296.5C 25.2742,293.609 26.7742,290.942 28.5,288.5 Z"/></g>
<g><path style="opacity:0.004" fill="#fefffe" d="M 65.5,319.5 C 66.8333,320.167 66.8333,320.167 65.5,319.5 Z"/></g>
<g><path style="opacity:1" fill="#9d665a" d="M 192.5,305.5 C 191.357,308.976 191.19,312.642 192,316.5C 192.414,316.043 192.914,315.709 193.5,315.5C 194.176,316.602 194.842,317.602 195.5,318.5C 193.743,321.423 191.243,323.423 188,324.5C 188.639,320.244 189.139,315.911 189.5,311.5C 189.292,309.08 189.626,306.747 190.5,304.5C 191.694,303.33 192.361,303.663 192.5,305.5 Z"/></g>
<g><path style="opacity:1" fill="#220a12" d="M 189.5,311.5 C 189.139,315.911 188.639,320.244 188,324.5C 191.243,323.423 193.743,321.423 195.5,318.5C 197.914,317.089 199.581,315.089 200.5,312.5C 201.268,313.263 201.768,314.263 202,315.5C 202.383,314.944 202.883,314.611 203.5,314.5C 205.153,314.66 206.486,315.326 207.5,316.5C 206.346,321.452 205.346,326.452 204.5,331.5C 204.511,333.045 204.844,334.378 205.5,335.5C 204.721,336.92 203.721,337.754 202.5,338C 202.748,339.749 203.748,340.582 205.5,340.5C 208.753,340.58 212.086,340.58 215.5,340.5C 213.085,341.814 210.252,342.481 207,342.5C 204.167,342.333 201.333,342.167 198.5,342C 196.475,336.368 195.142,330.535 194.5,324.5C 193.448,324.351 192.448,324.517 191.5,325C 190.262,325.69 190.262,326.19 191.5,326.5C 191.158,327.338 190.492,327.672 189.5,327.5C 188.504,327.414 187.671,327.748 187,328.5C 186.333,331.833 186.333,335.167 187,338.5C 188.067,339.191 189.234,339.691 190.5,340C 189.333,340.5 188.5,341.333 188,342.5C 187.097,341.299 185.931,340.465 184.5,340C 185.801,338.384 185.801,336.884 184.5,335.5C 185.073,329.489 185.74,323.489 186.5,317.5C 186.94,315.156 187.94,313.156 189.5,311.5 Z"/></g>
<g><path style="opacity:1" fill="#a48789" d="M 186.5,317.5 C 185.74,323.489 185.073,329.489 184.5,335.5C 184.845,338.488 183.512,339.821 180.5,339.5C 179.5,339.167 178.5,338.833 177.5,338.5C 176.811,336.556 176.311,334.556 176,332.5C 175.617,333.056 175.117,333.389 174.5,333.5C 173.833,331.167 173.167,328.833 172.5,326.5C 174.539,323.528 177.039,320.862 180,318.5C 180.414,318.957 180.914,319.291 181.5,319.5C 182.5,317.833 183.833,316.5 185.5,315.5C 186.298,315.957 186.631,316.624 186.5,317.5 Z"/></g>
<g><path style="opacity:0.004" fill="#fefffe" d="M 257.5,326.5 C 258.833,327.167 258.833,327.167 257.5,326.5 Z"/></g>
<g><path style="opacity:0.004" fill="#fefffe" d="M 281.5,326.5 C 282.833,327.167 282.833,327.167 281.5,326.5 Z"/></g>
<g><path style="opacity:1" fill="#a76257" d="M 166.5,321.5 C 168.81,324.212 170.477,327.378 171.5,331C 168.185,334.163 164.185,335.663 159.5,335.5C 157.98,333.11 156.98,330.443 156.5,327.5C 159.438,326.372 162.438,325.205 165.5,324C 166.252,323.329 166.586,322.496 166.5,321.5 Z"/></g>
<g><path style="opacity:1" fill="#564444" d="M 92.5,334.5 C 92.2316,340.232 94.8982,342.899 100.5,342.5C 120.833,342.5 141.167,342.5 161.5,342.5C 165.371,342.185 169.038,342.518 172.5,343.5C 146.498,343.333 120.498,343.5 94.5,344C 92.4049,345.15 90.2382,345.65 88,345.5C 85.3264,341.661 82.1597,338.327 78.5,335.5C 80.8211,335.658 82.6545,336.658 84,338.5C 84.5,337.5 85,336.5 85.5,335.5C 83.5,332.833 81.1667,330.5 78.5,328.5C 79.1667,328.167 79.8333,327.833 80.5,327.5C 82.8284,328.33 85.1617,329.163 87.5,330C 89.0375,331.707 90.7041,333.207 92.5,334.5 Z M 84.5,331.5 C 87.0842,331.569 89.0842,332.735 90.5,335C 88.1879,334.553 86.1879,333.387 84.5,331.5 Z"/></g>
<g><path style="opacity:1" fill="#6b525a" d="M 208.5,329.5 C 207.483,333.781 209.15,336.114 213.5,336.5C 214.705,337.577 215.372,338.91 215.5,340.5C 212.086,340.58 208.753,340.58 205.5,340.5C 205.47,339.503 205.97,338.836 207,338.5C 208.923,339.802 210.757,339.635 212.5,338C 207.713,336.693 206.38,333.859 208.5,329.5 Z"/></g>
<g><path style="opacity:0.638" fill="#451d1a" d="M 170.5,319.5 C 170.721,322.067 171.388,324.401 172.5,326.5C 173.167,328.833 173.833,331.167 174.5,333.5C 174.5,334.167 174.5,334.833 174.5,335.5C 172.738,335.643 171.071,335.309 169.5,334.5C 167.271,335.577 164.937,336.244 162.5,336.5C 162.483,338.565 162.15,340.565 161.5,342.5C 141.167,342.5 120.833,342.5 100.5,342.5C 104.614,341.174 109.114,340.507 114,340.5C 129.167,341.729 144.334,341.729 159.5,340.5C 159.5,338.833 159.5,337.167 159.5,335.5C 164.185,335.663 168.185,334.163 171.5,331C 170.477,327.378 168.81,324.212 166.5,321.5C 164.117,316.728 162.284,311.728 161,306.5C 160.202,304.741 160.369,303.074 161.5,301.5C 163.194,308.463 165.694,315.13 169,321.5C 169.278,320.584 169.778,319.918 170.5,319.5 Z"/></g>
<g><path style="opacity:1" fill="#7e656d" d="M 189.5,327.5 C 185.782,333.651 187.282,337.984 194,340.5C 195.016,343.626 194.183,345.959 191.5,347.5C 191.721,346.265 192.388,345.265 193.5,344.5C 192.279,340.661 191.612,340.661 191.5,344.5C 186.093,343.76 180.76,343.76 175.5,344.5C 174.841,341.545 174.508,338.545 174.5,335.5C 174.5,334.833 174.5,334.167 174.5,333.5C 175.117,333.389 175.617,333.056 176,332.5C 176.311,334.556 176.811,336.556 177.5,338.5C 178.5,338.833 179.5,339.167 180.5,339.5C 183.512,339.821 184.845,338.488 184.5,335.5C 185.801,336.884 185.801,338.384 184.5,340C 185.931,340.465 187.097,341.299 188,342.5C 188.5,341.333 189.333,340.5 190.5,340C 189.234,339.691 188.067,339.191 187,338.5C 186.333,335.167 186.333,331.833 187,328.5C 187.671,327.748 188.504,327.414 189.5,327.5 Z"/></g>
<g><path style="opacity:0.565" fill="#5f4a52" d="M 215.5,340.5 C 216.828,341.91 216.495,343.076 214.5,344C 208.786,344.632 203.119,344.299 197.5,343C 195.342,338.255 194.009,333.255 193.5,328C 193.164,326.97 192.497,326.47 191.5,326.5C 190.262,326.19 190.262,325.69 191.5,325C 192.448,324.517 193.448,324.351 194.5,324.5C 195.142,330.535 196.475,336.368 198.5,342C 201.333,342.167 204.167,342.333 207,342.5C 210.252,342.481 213.085,341.814 215.5,340.5 Z"/></g>
<g><path style="opacity:0.004" fill="#fefffe" d="M 17.5,343.5 C 18.8333,344.167 18.8333,344.167 17.5,343.5 Z"/></g>
<g><path style="opacity:0.597" fill="#261118" d="M 174.5,335.5 C 174.508,338.545 174.841,341.545 175.5,344.5C 180.76,343.76 186.093,343.76 191.5,344.5C 191.612,340.661 192.279,340.661 193.5,344.5C 192.388,345.265 191.721,346.265 191.5,347.5C 185.755,347.789 180.088,347.289 174.5,346C 173.619,345.292 172.953,344.458 172.5,343.5C 169.038,342.518 165.371,342.185 161.5,342.5C 162.15,340.565 162.483,338.565 162.5,336.5C 164.937,336.244 167.271,335.577 169.5,334.5C 171.071,335.309 172.738,335.643 174.5,335.5 Z"/></g>
<g><path style="opacity:0.004" fill="#fefffe" d="M 224.5,346.5 C 225.833,347.167 225.833,347.167 224.5,346.5 Z"/></g>
<g><path style="opacity:1" fill="#8a796a" d="M 35.5,299.5 C 33.3406,307.93 33.8406,316.264 37,324.5C 42.8218,332.655 49.6551,339.821 57.5,346C 58.7589,346.982 60.0922,347.315 61.5,347C 60.2889,345.887 60.2889,344.72 61.5,343.5C 67.3901,340.444 71.0567,342.277 72.5,349C 71.8945,352.071 70.2278,354.238 67.5,355.5C 67.6854,353.804 68.5187,352.471 70,351.5C 71.3442,344.8 68.8442,342.466 62.5,344.5C 63.6888,345.429 65.0222,345.762 66.5,345.5C 66.719,346.675 66.3857,347.675 65.5,348.5C 63.4595,349.236 61.4595,350.069 59.5,351C 60.4581,352.147 60.1247,353.147 58.5,354C 59.7375,354.232 60.7375,354.732 61.5,355.5C 52.2342,352.584 44.5675,347.25 38.5,339.5C 38.5,338.5 38.5,337.5 38.5,336.5C 39.7618,336.093 41.0951,335.76 42.5,335.5C 37.3107,330.165 33.644,323.999 31.5,317C 31.7483,311.747 32.0816,306.247 32.5,300.5C 33.2216,300.082 33.7216,299.416 34,298.5C 34.3826,299.056 34.8826,299.389 35.5,299.5 Z"/></g>
<g><path style="opacity:0.004" fill="#fefffe" d="M 119.5,349.5 C 120.833,350.167 120.833,350.167 119.5,349.5 Z"/></g>
<g><path style="opacity:0.004" fill="#fefffe" d="M 254.5,349.5 C 255.833,350.167 255.833,350.167 254.5,349.5 Z"/></g>
<g><path style="opacity:1" fill="#55473d" d="M 67.5,355.5 C 65.5,356.833 63.5,356.833 61.5,355.5C 60.7375,354.732 59.7375,354.232 58.5,354C 60.1247,353.147 60.4581,352.147 59.5,351C 61.4595,350.069 63.4595,349.236 65.5,348.5C 66.3857,347.675 66.719,346.675 66.5,345.5C 65.0222,345.762 63.6888,345.429 62.5,344.5C 68.8442,342.466 71.3442,344.8 70,351.5C 68.5187,352.471 67.6854,353.804 67.5,355.5 Z"/></g>
<g><path style="opacity:0.004" fill="#fefffe" d="M 110.5,350.5 C 111.833,351.167 111.833,351.167 110.5,350.5 Z"/></g>
<g><path style="opacity:0.004" fill="#fefffe" d="M 113.5,352.5 C 114.833,353.167 114.833,353.167 113.5,352.5 Z"/></g>
<g><path style="opacity:0.004" fill="#fefffe" d="M 239.5,354.5 C 240.833,355.167 240.833,355.167 239.5,354.5 Z"/></g>
</svg>
